# xmcd
#
# Track frame offsets:
#	182
#	30622
#	44137
#	77485
#	92745
#	113390
#	134522
#	156462
#	185665
#	247195
#	301275
#
# Disc length: 4450 seconds
#
# Revision: 0
# Processed by: cddbd v1.5.1PL2 Copyright (c) Steve Scherf et al.
# Submitted via: dBpowerAMP V4.0
#
DISCID=9311600b
DTITLE=The Marshall Tucker Band - Where we all belong
DYEAR=1900
DGENRE=Southern Rock
TTITLE0=this ol' cowboy
TTITLE1=low down ways
TTITLE2=in my own way
TTITLE3=how can I slow down
TTITLE4=where a country boy belongs
TTITLE5=now she's gone
TTITLE6=try one more time
TTITLE7=ramblin'-live
TTITLE8=24 hours at a time-live
TTITLE9=everyday I have the blues-live
TTITLE10=take the highway-live
EXTD=
EXTT0=
EXTT1=
EXTT2=
EXTT3=
EXTT4=
EXTT5=
EXTT6=
EXTT7=
EXTT8=
EXTT9=
EXTT10=
PLAYORDER=
